<svg xmlns="http://www.w3.org/2000/svg" xmlns:xlink="http://www.w3.org/1999/xlink" width="500" zoomAndPan="magnify" viewBox="0 0 375 374.999991" height="500" preserveAspectRatio="xMidYMid meet" version="1.0"><defs><g/><clipPath id="f284aeeb68"><path d="M 21 75 L 356 75 L 356 301.621094 L 21 301.621094 Z M 21 75 " clip-rule="nonzero"/></clipPath><clipPath id="b628d34492"><path d="M 0.199219 2 L 0.679688 2 L 0.679688 2.640625 L 0.199219 2.640625 Z M 0.199219 2 " clip-rule="nonzero"/></clipPath><clipPath id="bfd7a4c108"><rect x="0" width="1" y="0" height="3"/></clipPath></defs><g clip-path="url(#f284aeeb68)"><path fill="#5170ff" d="M 66.691406 222.796875 C 66.691406 232.289062 68.398438 241.96875 72.574219 248.421875 C 75.609375 252.976562 80.164062 256.011719 86.617188 256.011719 C 90.222656 256.011719 93.832031 255.632812 98.007812 252.976562 C 102.75 249.9375 108.445312 244.246094 116.035156 233.617188 C 125.148438 221.089844 135.585938 204.578125 144.503906 190.53125 C 147.921875 185.027344 151.148438 179.90625 154.183594 175.347656 L 165.953125 157.128906 C 160.070312 148.96875 153.617188 140.238281 146.214844 133.40625 C 138.242188 126.382812 129.511719 121.257812 119.453125 121.257812 C 113.757812 121.257812 108.632812 123.15625 103.890625 126.570312 C 98.195312 130.367188 93.070312 136.25 88.136719 143.464844 C 81.683594 153.523438 76.179688 166.050781 72.574219 179.714844 C 72.382812 179.90625 72.382812 179.90625 72.382812 180.09375 C 68.777344 193.757812 66.691406 208.375 66.691406 222.796875 Z M 64.222656 253.925781 C 58.71875 245.574219 56.628906 233.996094 56.628906 222.796875 C 56.628906 207.613281 58.71875 192.050781 62.703125 177.4375 C 62.703125 177.4375 62.703125 177.246094 62.703125 177.058594 C 66.691406 162.441406 72.574219 148.96875 79.785156 137.960938 C 85.289062 129.609375 91.363281 122.964844 98.195312 118.222656 C 104.648438 113.664062 111.671875 111.199219 119.453125 111.199219 C 132.359375 111.199219 143.367188 117.273438 152.855469 126.003906 C 161.96875 134.164062 169.558594 144.601562 176.203125 154.09375 C 177.339844 155.800781 177.53125 157.886719 176.390625 159.785156 L 162.535156 180.851562 C 159.6875 185.21875 156.460938 190.34375 153.046875 195.847656 C 143.9375 210.082031 133.496094 226.59375 124.199219 239.5 C 115.65625 251.265625 109.203125 257.71875 103.320312 261.515625 C 97.058594 265.5 91.933594 266.261719 86.617188 266.261719 C 76.179688 266.261719 68.96875 261.328125 64.222656 253.925781 Z M 49.988281 120.308594 C 52.644531 116.324219 55.300781 112.527344 58.148438 109.109375 C 71.625 92.597656 88.136719 81.589844 105.976562 77.605469 C 124.007812 73.621094 142.988281 76.65625 161.019531 88.421875 C 164.054688 90.320312 166.902344 92.410156 169.75 94.6875 C 169.75 94.875 169.9375 94.875 169.9375 94.875 C 174.304688 98.480469 178.667969 102.46875 183.035156 107.214844 C 186.261719 110.441406 189.488281 114.046875 192.714844 118.222656 C 200.304688 108.542969 208.65625 99.050781 218.335938 91.460938 C 230.101562 82.160156 243.390625 76.085938 258.574219 76.085938 C 271.480469 76.085938 284.003906 79.691406 295.582031 86.90625 C 306.96875 93.925781 317.410156 104.367188 326.328125 117.839844 C 336.007812 132.074219 343.222656 148.207031 347.964844 165.480469 C 352.902344 183.132812 355.367188 201.921875 355.367188 221.089844 C 355.367188 232.289062 354.230469 242.15625 352.140625 250.886719 C 350.054688 259.617188 347.015625 267.398438 343.03125 274.042969 C 343.03125 274.234375 343.03125 274.234375 342.839844 274.421875 C 338.476562 281.824219 332.214844 288.46875 324.242188 293.210938 C 316.839844 297.578125 308.109375 300.425781 298.050781 300.992188 C 289.699219 301.375 281.539062 300.613281 273.566406 297.957031 C 265.59375 295.300781 257.8125 290.746094 249.84375 283.152344 C 244.71875 278.21875 239.023438 271.574219 233.519531 264.171875 C 227.257812 255.824219 220.992188 246.332031 215.679688 237.414062 L 188.726562 192.242188 L 180.1875 207.234375 C 180.1875 207.425781 180.1875 207.425781 180.1875 207.613281 C 169.9375 225.644531 163.484375 236.84375 158.359375 245.003906 C 153.046875 253.542969 149.25 259.050781 143.9375 266.070312 C 134.636719 278.597656 125.90625 287.136719 116.796875 292.832031 C 107.304688 298.527344 97.625 300.992188 86.617188 300.992188 C 73.523438 300.992188 63.082031 298.148438 54.351562 293.210938 C 45.8125 288.277344 39.359375 281.445312 34.234375 273.285156 C 34.046875 273.09375 34.046875 272.902344 33.855469 272.714844 L 33.855469 272.523438 L 33.664062 272.523438 C 22.089844 253.164062 19.621094 227.734375 22.277344 202.679688 C 25.882812 170.984375 37.652344 139.289062 49.988281 120.308594 Z M 65.929688 115.5625 C 63.273438 118.789062 60.804688 122.207031 58.527344 125.8125 C 46.953125 143.652344 35.753906 173.640625 32.335938 203.628906 C 29.871094 226.59375 31.957031 249.558594 42.015625 266.832031 C 42.207031 267.019531 42.394531 267.210938 42.394531 267.398438 C 46.761719 274.421875 52.265625 280.304688 59.289062 284.480469 C 66.5 288.65625 75.421875 290.933594 86.617188 290.933594 C 95.726562 290.933594 103.699219 288.847656 111.480469 284.101562 C 119.453125 279.355469 127.425781 271.386719 135.964844 259.996094 C 140.898438 253.355469 144.695312 247.851562 149.820312 239.691406 C 154.945312 231.527344 161.207031 220.332031 171.265625 202.488281 C 171.457031 202.488281 171.457031 202.300781 171.457031 202.300781 L 184.171875 179.714844 C 184.550781 179.144531 185.3125 178.386719 186.070312 178.007812 C 188.347656 176.488281 191.574219 177.246094 192.902344 179.714844 L 224.410156 232.289062 C 229.535156 240.828125 235.605469 250.128906 241.679688 258.289062 C 246.804688 265.121094 252.121094 271.386719 256.863281 275.941406 C 263.695312 282.203125 270.148438 286.191406 276.792969 288.46875 C 283.4375 290.746094 290.269531 291.3125 297.671875 290.933594 C 305.832031 290.554688 313.042969 288.085938 319.117188 284.671875 C 325.570312 280.683594 330.503906 275.371094 334.109375 269.296875 C 334.300781 269.109375 334.300781 269.109375 334.300781 268.917969 C 337.71875 263.035156 340.5625 256.390625 342.273438 248.609375 C 344.171875 240.640625 345.308594 231.527344 345.308594 221.089844 C 345.308594 202.871094 342.839844 184.839844 338.285156 168.136719 C 333.730469 152.003906 326.898438 136.820312 317.976562 123.34375 C 309.816406 111.199219 300.328125 101.898438 290.269531 95.636719 C 280.210938 89.371094 269.582031 86.144531 258.574219 86.144531 C 246.046875 86.144531 234.660156 91.460938 224.597656 99.429688 C 214.160156 107.59375 204.859375 118.601562 196.890625 129.230469 C 196.699219 129.609375 196.320312 129.988281 195.941406 130.179688 C 193.851562 132.074219 190.625 131.695312 188.917969 129.417969 C 184.363281 123.726562 179.996094 118.601562 175.632812 114.046875 C 171.457031 109.679688 167.472656 106.074219 163.484375 102.847656 C 163.484375 102.65625 163.296875 102.65625 163.296875 102.46875 C 160.636719 100.378906 158.171875 98.480469 155.515625 96.964844 C 139.949219 86.714844 123.4375 84.058594 108.253906 87.472656 C 92.691406 90.890625 78.078125 100.761719 65.929688 115.5625 Z M 314.371094 223.9375 C 314.5625 208.5625 312.664062 192.242188 308.867188 176.679688 C 305.261719 162.632812 300.136719 149.347656 292.925781 138.527344 C 287.800781 130.558594 281.917969 124.105469 275.464844 119.929688 C 269.769531 115.945312 263.507812 113.855469 256.863281 113.855469 C 248.894531 113.855469 241.492188 117.460938 234.660156 123.726562 C 227.824219 129.796875 221.371094 138.148438 214.730469 148.207031 C 221.941406 158.835938 230.484375 172.882812 239.023438 187.304688 C 252.878906 209.890625 266.734375 233.046875 276.035156 244.433594 C 280.019531 248.988281 283.246094 252.027344 286.28125 253.925781 C 288.941406 255.441406 291.597656 256.011719 294.632812 256.011719 C 302.035156 256.011719 306.78125 252.785156 309.628906 247.660156 C 313.042969 241.585938 314.183594 233.046875 314.371094 223.9375 Z M 318.738281 174.210938 C 322.722656 190.53125 324.621094 207.804688 324.429688 223.9375 C 324.242188 234.753906 322.722656 244.8125 318.546875 252.40625 C 313.992188 260.757812 306.402344 266.070312 294.632812 266.070312 C 289.890625 266.070312 285.714844 265.121094 281.15625 262.65625 C 277.171875 260.1875 272.996094 256.390625 268.253906 250.699219 C 258.574219 238.929688 244.339844 215.394531 230.484375 192.429688 C 221.183594 177.246094 212.261719 162.441406 204.480469 151.054688 C 203.53125 149.347656 203.34375 147.257812 204.480469 145.550781 C 212.074219 133.59375 219.664062 123.535156 228.015625 116.132812 C 236.746094 108.351562 246.046875 103.796875 256.863281 103.796875 C 265.40625 103.796875 273.566406 106.453125 281.15625 111.578125 C 288.75 116.511719 295.582031 123.914062 301.464844 133.023438 C 309.246094 144.980469 314.941406 159.214844 318.738281 174.210938 Z M 318.738281 174.210938 " fill-opacity="1" fill-rule="nonzero"/></g><g transform="matrix(1, 0, 0, 1, 187, 300)"><g clip-path="url(#bfd7a4c108)"><g clip-path="url(#b628d34492)"><g fill="#000000" fill-opacity="1"><g transform="translate(0.367596, 2.28072)"><g><path d="M 0.125 0 C 0.113281 0 0.101562 -0.00390625 0.09375 -0.015625 C 0.0820312 -0.0234375 0.078125 -0.0351562 0.078125 -0.046875 C 0.078125 -0.0664062 0.0820312 -0.0820312 0.09375 -0.09375 C 0.101562 -0.101562 0.113281 -0.109375 0.125 -0.109375 C 0.144531 -0.109375 0.160156 -0.101562 0.171875 -0.09375 C 0.179688 -0.0820312 0.1875 -0.0664062 0.1875 -0.046875 C 0.1875 -0.0351562 0.179688 -0.0234375 0.171875 -0.015625 C 0.160156 -0.00390625 0.144531 0 0.125 0 Z M 0.125 0 "/></g></g></g></g></g></g></svg>