<svg xmlns="http://www.w3.org/2000/svg" xmlns:xlink="http://www.w3.org/1999/xlink" width="500" zoomAndPan="magnify" viewBox="0 0 375 374.999991" height="500" preserveAspectRatio="xMidYMid meet" version="1.0"><defs><g/><clipPath id="31e1d85afb"><path d="M 37.5 134.613281 L 336.75 134.613281 L 336.75 240.363281 L 37.5 240.363281 Z M 37.5 134.613281 " clip-rule="nonzero"/></clipPath><clipPath id="fac03fdd2f"><path d="M 0.199219 2 L 0.679688 2 L 0.679688 2.640625 L 0.199219 2.640625 Z M 0.199219 2 " clip-rule="nonzero"/></clipPath><clipPath id="bd591868a0"><rect x="0" width="1" y="0" height="3"/></clipPath></defs><g clip-path="url(#31e1d85afb)"><path fill="#5170ff" d="M 267.59375 240.332031 C 256.414062 240.332031 246.636719 238.179688 236.382812 234.582031 C 234.625 234.128906 232.921875 233.53125 231.265625 232.78125 C 223.816406 229.90625 214.957031 227.023438 203.785156 218.367188 L 187.019531 205.789062 L 183.289062 208.664062 C 169.777344 219.085938 146.035156 230.601562 137.1875 234.554688 C 127.148438 238.445312 116.746094 240.359375 105.976562 240.304688 C 69.183594 240.332031 37.980469 216.238281 37.980469 187.472656 C 37.980469 158.703125 69.183594 134.613281 106.457031 134.613281 C 130.203125 134.613281 143.710938 145.035156 156.289062 154.75 L 187.496094 178.839844 L 206.121094 164.425781 C 221.023438 152.957031 243.402344 134.613281 268.0625 134.613281 C 304.847656 134.613281 336.058594 158.703125 336.058594 187.472656 C 336.058594 216.238281 304.847656 240.332031 267.59375 240.332031 Z M 204.253906 192.148438 C 204.253906 192.148438 220.554688 206.5625 240.582031 215.519531 C 248.492188 218.753906 260.601562 221.996094 268.0625 221.996094 C 291.8125 221.996094 311.371094 206.527344 311.371094 188.554688 C 311.371094 170.578125 291.34375 154.027344 268.0625 154.027344 C 255.953125 154.027344 239.1875 166.640625 228.003906 175.246094 L 220.554688 181.003906 Z M 106.457031 154.027344 C 82.707031 154.027344 63.136719 169.488281 63.136719 187.472656 C 63.136719 205.453125 83.15625 220.914062 106.457031 220.914062 C 113.421875 221.085938 120.097656 219.769531 126.476562 216.960938 C 133.925781 214.085938 154.882812 203.652344 166.0625 195.023438 L 169.785156 192.148438 L 137.648438 168.054688 C 126.007812 158.703125 119.96875 154.027344 106.457031 154.027344 Z M 106.457031 154.027344 " fill-opacity="1" fill-rule="nonzero"/></g><g transform="matrix(1, 0, 0, 1, 187, 300)"><g clip-path="url(#bd591868a0)"><g clip-path="url(#fac03fdd2f)"><g fill="#000000" fill-opacity="1"><g transform="translate(0.367596, 2.28072)"><g><path d="M 0.125 0 C 0.113281 0 0.101562 -0.00390625 0.09375 -0.015625 C 0.0820312 -0.0234375 0.078125 -0.0351562 0.078125 -0.046875 C 0.078125 -0.0664062 0.0820312 -0.0820312 0.09375 -0.09375 C 0.101562 -0.101562 0.113281 -0.109375 0.125 -0.109375 C 0.144531 -0.109375 0.160156 -0.101562 0.171875 -0.09375 C 0.179688 -0.0820312 0.1875 -0.0664062 0.1875 -0.046875 C 0.1875 -0.0351562 0.179688 -0.0234375 0.171875 -0.015625 C 0.160156 -0.00390625 0.144531 0 0.125 0 Z M 0.125 0 "/></g></g></g></g></g></g></svg>